<?xml version="1.0" encoding="utf-8"?>
<!-- Generator: Adobe Illustrator 23.0.3, SVG Export Plug-In . SVG Version: 6.00 Build 0)  -->
<svg version="1.1" id="Layer_1" xmlns="http://www.w3.org/2000/svg" xmlns:xlink="http://www.w3.org/1999/xlink" x="0px" y="0px"
	 viewBox="0 0 100 100" style="enable-background:new 0 0 100 100;" xml:space="preserve">
<style type="text/css">
	.st0{fill:#F15B5B;}
	.st1{fill:#F69899;}
</style>
<path class="st0" d="M87.7,34.1l0-7.7c0-3.4-3.1-3.5-3.1-3.5l-43.7,0c-1,0-2.2-1.2-2.9-2.1c-0.2-0.3-0.4-0.7-0.6-1
	c-1.8-2.9-3-2.7-3-2.7H22.9l-6.8,0c-3.8,0-3.8,3.5-3.8,3.5v13.5L87.7,34.1z"/>
<path class="st1" d="M87.7,34c0,0,0-3.5-3.5-3.5c-3.5,0-68.4,0-68.4,0s-3.4,0.2-3.4,3.6V80c0,0,0,2.9,2.9,2.9h69c0,0,3.5,0,3.5-3.1
	L87.7,34z"/>
<path class="st0" d="M71.9,75.9h-1.5c-1.2,0-2-0.8-2-1.9V60.1l-2.6,2.6c-0.4,0.4-0.9,0.6-1.4,0.6s-1.1-0.2-1.4-0.6L62,61.8
	c-0.8-0.8-0.8-2,0-2.8c0,0,0,0,0,0l7.7-7.7c0.4-0.4,0.9-0.6,1.4-0.6c0.5,0,1.1,0.2,1.4,0.6l7.7,7.7c0.4,0.4,0.6,0.9,0.6,1.4
	s-0.2,1-0.6,1.4l-0.9,0.9c-0.4,0.4-0.9,0.6-1.4,0.6c-0.5,0-1.1-0.2-1.4-0.6l-2.6-2.6V74C73.9,75.1,73.1,75.9,71.9,75.9z"/>
</svg>
